<?xml version="1.0" standalone="no"?><!DOCTYPE svg PUBLIC "-//W3C//DTD SVG 1.1//EN" "http://www.w3.org/Graphics/SVG/1.1/DTD/svg11.dtd"><svg t="1638824577150" class="icon" viewBox="0 0 1024 1024" version="1.1" xmlns="http://www.w3.org/2000/svg" p-id="1256" xmlns:xlink="http://www.w3.org/1999/xlink" width="200" height="200"><defs><style type="text/css"></style></defs><path d="M447.488 862.9248V714.6496c-2.048 1.9456-3.3792 3.072-4.7104 4.3008-46.8992 46.8992-93.9008 93.9008-140.9024 140.6976-1.8432 1.8432-4.8128 3.3792-7.2704 3.4816-52.224 0.2048-104.448 0.1024-156.672 0.1024h-3.3792V233.0624h6.656c50.8928 0.1024 101.6832 0.2048 152.576 0.1024 3.584 0 5.9392 1.1264 8.3968 3.584 70.0416 70.144 140.1856 140.288 210.2272 210.432 1.3312 1.3312 2.2528 2.9696 4.4032 6.0416 2.048-2.8672 2.9696-4.8128 4.4032-6.2464 69.8368-69.9392 139.6736-139.776 209.5104-209.7152 2.8672-2.8672 5.7344-4.096 9.8304-4.096 50.4832 0.1024 101.0688-0.1024 151.552-0.1024h6.8608v629.9648c-1.6384 0.1024-3.2768 0.2048-4.9152 0.2048-51.5072 0-103.1168 0-154.624 0.1024-3.3792 0-5.632-1.024-7.9872-3.3792-47.8208-47.9232-95.744-95.8464-143.6672-143.7696-1.4336-1.4336-2.8672-2.7648-5.0176-4.8128v151.4496c-45.1584 0.1024-89.8048 0.1024-135.2704 0.1024zM269.5168 697.6512c50.0736-50.176 99.9424-99.9424 148.5824-148.5824L269.5168 400.4864v297.1648z m345.4976-150.1184l148.48 148.48v-296.96c-49.9712 49.8688-99.6352 99.5328-148.48 148.48z" p-id="1257" fill="#587fcb"></path></svg>